<svg height="2110" width="720" xmlns="http://www.w3.org/2000/svg">
<rect height="2110" fill="#555" width="720"></rect>
<text fill="#7f7" font-family="Courier New" font-size="12" xml:space="preserve">
<tspan x="10" y="26"></tspan>
<tspan x="10" y="42">&gt; npmdoc-express@0.0.5 test /home/travis/build/npmdoc/node-npmdoc-express</tspan>
<tspan x="10" y="58">&gt; (set -e; export PORT=$(utility2 shServerPortRandom); utility2 test test.js)</tspan>
<tspan x="10" y="74"></tspan>
<tspan x="10" y="90"></tspan>
<tspan x="10" y="106">[MODE_BUILD=npmTest] - 2017-04-03T09:46:51Z - npm-testing /home/travis/build/npmdoc/node-npmdoc-\</tspan>
<tspan x="10" y="122">express</tspan>
<tspan x="10" y="138"></tspan>
<tspan x="10" y="154"></tspan>
<tspan x="10" y="170">covering $ /home/travis/.nvm/versions/node/v7.8.0/bin/node /home/travis/build/npmdoc/node-npmdoc\</tspan>
<tspan x="10" y="186">-express/test.js</tspan>
<tspan x="10" y="202">merging file:///home/travis/build/npmdoc/node-npmdoc-express/tmp/build/test-report.json to test-\</tspan>
<tspan x="10" y="218">report</tspan>
<tspan x="10" y="234">&gt; server listening on http-port 56166</tspan>
<tspan x="10" y="250">Mon, 03 Apr 2017 09:46:51 GMT express deprecated req.host: Use req.hostname instead at node_modu\</tspan>
<tspan x="10" y="266">les/utility2/lib.apidoc.js:756:63</tspan>
<tspan x="10" y="282">Mon, 03 Apr 2017 09:46:52 GMT express deprecated req.host: Use req.hostname instead at node_modu\</tspan>
<tspan x="10" y="298">les/utility2/lib.apidoc.js:760:63</tspan>
<tspan x="10" y="314">Mon, 03 Apr 2017 09:46:52 GMT express deprecated req.host: Use req.hostname instead at node_modu\</tspan>
<tspan x="10" y="330">les/utility2/lib.apidoc.js:715:47</tspan>
<tspan x="10" y="346">created apidoc file:///home/travis/build/npmdoc/node-npmdoc-express/tmp/build/apidoc.html</tspan>
<tspan x="10" y="362"></tspan>
<tspan x="10" y="378"></tspan>
<tspan x="10" y="394">browserTest - created electron entry-page /home/travis/build/npmdoc/node-npmdoc-express/tmp/elec\</tspan>
<tspan x="10" y="410">tron.15b3335bf4a0.7556e1dbca356.html</tspan>
<tspan x="10" y="426"></tspan>
<tspan x="10" y="442">Xlib:  extension "RANDR" missing on display ":99.0".</tspan>
<tspan x="10" y="458">[node test-case 1 of 6 passed] - testCase_buildLib_default</tspan>
<tspan x="10" y="474">[node test-case 2 of 6 passed] - testCase_buildReadme_default</tspan>
<tspan x="10" y="490">[node test-case 3 of 6 passed] - testCase_buildTest_default</tspan>
<tspan x="10" y="506"></tspan>
<tspan x="10" y="522">browserTest - created electron entry-page /home/travis/build/npmdoc/node-npmdoc-express/tmp/elec\</tspan>
<tspan x="10" y="538">tron.15b3335bfe70.dddde97c0c8be.html</tspan>
<tspan x="10" y="554"></tspan>
<tspan x="10" y="570">(node:5259) DeprecationWarning: node --debug is deprecated. Please use node --inspect instead.</tspan>
<tspan x="10" y="586">Xlib:  extension "RANDR" missing on display ":99.0".</tspan>
<tspan x="10" y="602">&gt; server listening on http-port 61443</tspan>
<tspan x="10" y="618">merging file:///home/travis/build/npmdoc/node-npmdoc-express/tmp/build/test-report.json to test-\</tspan>
<tspan x="10" y="634">report</tspan>
<tspan x="10" y="650">Xlib:  extension "RANDR" missing on display ":99.0".</tspan>
<tspan x="10" y="666">merging file:///home/travis/build/npmdoc/node-npmdoc-express/tmp/build/test-report.json to test-\</tspan>
<tspan x="10" y="682">report</tspan>
<tspan x="10" y="698">[5273:0403/094652:WARNING:audio_manager.cc(314)] Multiple instances of AudioManager detected</tspan>
<tspan x="10" y="714">[5273:0403/094652:WARNING:audio_manager.cc(275)] Multiple instances of AudioManager detected</tspan>
<tspan x="10" y="730">[5317:0403/094652:ERROR:sandbox_linux.cc(343)] InitializeSandbox() called with multiple threads \</tspan>
<tspan x="10" y="746">in process gpu-process. </tspan>
<tspan x="10" y="762">Xlib:  extension "RANDR" missing on display ":99.0".</tspan>
<tspan x="10" y="778">[5287:0403/094653:WARNING:audio_manager.cc(314)] Multiple instances of AudioManager detected</tspan>
<tspan x="10" y="794">[5287:0403/094653:WARNING:audio_manager.cc(275)] Multiple instances of AudioManager detected</tspan>
<tspan x="10" y="810">[5339:0403/094653:ERROR:sandbox_linux.cc(343)] InitializeSandbox() called with multiple threads \</tspan>
<tspan x="10" y="826">in process gpu-process. </tspan>
<tspan x="10" y="842">[5287:0403/094653:ERROR:browser_gpu_channel_host_factory.cc(131)] Failed to create channel.</tspan>
<tspan x="10" y="858"></tspan>
<tspan x="10" y="874">browserTest - opened url /home/travis/build/npmdoc/node-npmdoc-express/tmp/build/apidoc.html</tspan>
<tspan x="10" y="890"></tspan>
<tspan x="10" y="906"></tspan>
<tspan x="10" y="922">browserTest - opened url http://127.0.0.1:56166?modeTest=1</tspan>
<tspan x="10" y="938"></tspan>
<tspan x="10" y="954">[5287:0403/094655:INFO:CONSOLE(245)] "----------|-----------|-----------|-----------|-----------\</tspan>
<tspan x="10" y="970">|</tspan>
<tspan x="10" y="986">File      |   % Stmts |% Branches |   % Funcs |   % Lines |</tspan>
<tspan x="10" y="1002">----------|-----------|-----------|-----------|-----------|</tspan>
<tspan x="10" y="1018">----------|-----------|-----------|-----------|-----------|</tspan>
<tspan x="10" y="1034">All files |       100 |       100 |       100 |       100 |</tspan>
<tspan x="10" y="1050">----------|-----------|-----------|-----------|-----------|</tspan>
<tspan x="10" y="1066">", source: file:///home/travis/build/npmdoc/node-npmdoc-express/tmp/electron.15b3335bfe70.dddde9\</tspan>
<tspan x="10" y="1082">7c0c8be.html (245)</tspan>
<tspan x="10" y="1098">[5287:0403/094655:INFO:CONSOLE(245)] "created coverage file:///tmp/build/coverage.html/index.htm\</tspan>
<tspan x="10" y="1114">l", source: file:///home/travis/build/npmdoc/node-npmdoc-express/tmp/electron.15b3335bfe70.dddde\</tspan>
<tspan x="10" y="1130">97c0c8be.html (245)</tspan>
<tspan x="10" y="1146">[node test-case 4 of 6 passed] - testCase_buildApp_default</tspan>
<tspan x="10" y="1162"></tspan>
<tspan x="10" y="1178">browserTest - created screenCapture file:///home/travis/build/npmdoc/node-npmdoc-express/tmp/bui\</tspan>
<tspan x="10" y="1194">ld/screenCapture.npmTest.browser._2Fhome_2Ftravis_2Fbuild_2Fnpmdoc_2Fnode-npmdoc-express_2Ftmp_2\</tspan>
<tspan x="10" y="1210">Fbuild_2Fapidoc.html.png</tspan>
<tspan x="10" y="1226"></tspan>
<tspan x="10" y="1242">browserTest - created screenCapture file:///home/travis/build/npmdoc/node-npmdoc-express/tmp/bui\</tspan>
<tspan x="10" y="1258">ld/screenCapture.npmTest.browser._2Fhome_2Ftravis_2Fbuild_2Fnpmdoc_2Fnode-npmdoc-express_2Ftmp_2\</tspan>
<tspan x="10" y="1274">Fbuild_2Fapidoc.html.html</tspan>
<tspan x="10" y="1290"></tspan>
<tspan x="10" y="1306">browserTest - exit-code 0 - /home/travis/build/npmdoc/node-npmdoc-express/tmp/build/apidoc.html</tspan>
<tspan x="10" y="1322"></tspan>
<tspan x="10" y="1338">[node test-case 5 of 6 passed] - testCase_buildApidoc_default</tspan>
<tspan x="10" y="1354"></tspan>
<tspan x="10" y="1370">browserTest - created screenCapture file:///home/travis/build/npmdoc/node-npmdoc-express/tmp/bui\</tspan>
<tspan x="10" y="1386">ld/screenCapture.npmTest.browser..png</tspan>
<tspan x="10" y="1402"></tspan>
<tspan x="10" y="1418">browserTest - created screenCapture file:///home/travis/build/npmdoc/node-npmdoc-express/tmp/bui\</tspan>
<tspan x="10" y="1434">ld/screenCapture.npmTest.browser..html</tspan>
<tspan x="10" y="1450"></tspan>
<tspan x="10" y="1466">browserTest - exit-code 0 - http://127.0.0.1:56166?modeTest=1</tspan>
<tspan x="10" y="1482"></tspan>
<tspan x="10" y="1498"></tspan>
<tspan x="10" y="1514">browserTest - merged coverage from /home/travis/build/npmdoc/node-npmdoc-express/tmp/coverage.np\</tspan>
<tspan x="10" y="1530">mTest.browser.%2F.json</tspan>
<tspan x="10" y="1546"></tspan>
<tspan x="10" y="1562"></tspan>
<tspan x="10" y="1578">browserTest - merging test-report from /home/travis/build/npmdoc/node-npmdoc-express/tmp/test-re\</tspan>
<tspan x="10" y="1594">port.npmTest.browser.%2F.json</tspan>
<tspan x="10" y="1610"></tspan>
<tspan x="10" y="1626">[node test-case 6 of 6 passed] - testCase_webpage_default</tspan>
<tspan x="10" y="1642">----------------------------|-----------|-----------|-----------|-----------|</tspan>
<tspan x="10" y="1658">File                        |   % Stmts |% Branches |   % Funcs |   % Lines |</tspan>
<tspan x="10" y="1674">----------------------------|-----------|-----------|-----------|-----------|</tspan>
<tspan x="10" y="1690">   node-npmdoc-express/     |       100 |       100 |       100 |       100 |</tspan>
<tspan x="10" y="1706">      example.js            |       100 |       100 |       100 |       100 |</tspan>
<tspan x="10" y="1722">      lib.npmdoc_express.js |       100 |       100 |       100 |       100 |</tspan>
<tspan x="10" y="1738">      test.js               |       100 |       100 |       100 |       100 |</tspan>
<tspan x="10" y="1754">----------------------------|-----------|-----------|-----------|-----------|</tspan>
<tspan x="10" y="1770">All files                   |       100 |       100 |       100 |       100 |</tspan>
<tspan x="10" y="1786">----------------------------|-----------|-----------|-----------|-----------|</tspan>
<tspan x="10" y="1802"></tspan>
<tspan x="10" y="1818">created coverage file:///home/travis/build/npmdoc/node-npmdoc-express/tmp/build/coverage.html/in\</tspan>
<tspan x="10" y="1834">dex.html</tspan>
<tspan x="10" y="1850">merging file:///home/travis/build/npmdoc/node-npmdoc-express/tmp/build/test-report.json to test-\</tspan>
<tspan x="10" y="1866">report</tspan>
<tspan x="10" y="1882"></tspan>
<tspan x="10" y="1898">-------------------------------------------------------</tspan>
<tspan x="10" y="1914">| test-report - buildNpmdoc - node - linux v7.8.0 - 2017-04-03T09:46:36.553Z</tspan>
<tspan x="10" y="1930">|   25908 ms            0 failed        6 passed      |</tspan>
<tspan x="10" y="1946">-------------------------------------------------------</tspan>
<tspan x="10" y="1962"></tspan>
<tspan x="10" y="1978">created test-report file:///home/travis/build/npmdoc/node-npmdoc-express/tmp/build/test-report.h\</tspan>
<tspan x="10" y="1994">tml</tspan>
<tspan x="10" y="2010"></tspan>
<tspan x="10" y="2026"></tspan>
<tspan x="10" y="2042">npmTest - 0 failed tests</tspan>
<tspan x="10" y="2058"></tspan>
<tspan x="10" y="2074"></tspan>
<tspan x="10" y="2090">[MODE_BUILD=npmTest] - 2017-04-03T09:47:05Z - EXIT_CODE - 0</tspan>
</text>
</svg>
