<svg height="2366" width="720" xmlns="http://www.w3.org/2000/svg">
<rect height="2366" fill="#555" width="720"></rect>
<text fill="#7f7" font-family="Courier New" font-size="12" xml:space="preserve">
<tspan x="10" y="26"></tspan>
<tspan x="10" y="42">&gt; npmdoc-express@0.0.5 test /home/travis/build/npmdoc/node-npmdoc-express</tspan>
<tspan x="10" y="58">&gt; (set -e; export PORT=$(utility2 shServerPortRandom); utility2 test test.js)</tspan>
<tspan x="10" y="74"></tspan>
<tspan x="10" y="90"></tspan>
<tspan x="10" y="106">[MODE_BUILD=npmTest] - 2017-03-25T12:01:50Z - npm-testing /home/travis/build/npmdoc/node-npmdoc-\</tspan>
<tspan x="10" y="122">express</tspan>
<tspan x="10" y="138"></tspan>
<tspan x="10" y="154"></tspan>
<tspan x="10" y="170">covering $ /home/travis/.nvm/versions/node/v7.7.4/bin/node /home/travis/build/npmdoc/node-npmdoc\</tspan>
<tspan x="10" y="186">-express/test.js</tspan>
<tspan x="10" y="202">merging file:///home/travis/build/npmdoc/node-npmdoc-express/tmp/build/test-report.json to test-\</tspan>
<tspan x="10" y="218">report</tspan>
<tspan x="10" y="234">&gt; server listening on http-port 49402</tspan>
<tspan x="10" y="250">Sat, 25 Mar 2017 12:01:50 GMT express deprecated req.host: Use req.hostname instead at node_modu\</tspan>
<tspan x="10" y="266">les/utility2/lib.apidoc.js:725:63</tspan>
<tspan x="10" y="282">Sat, 25 Mar 2017 12:01:50 GMT express deprecated req.host: Use req.hostname instead at node_modu\</tspan>
<tspan x="10" y="298">les/utility2/lib.apidoc.js:729:63</tspan>
<tspan x="10" y="314">Sat, 25 Mar 2017 12:01:51 GMT express deprecated req.host: Use req.hostname instead at node_modu\</tspan>
<tspan x="10" y="330">les/utility2/lib.apidoc.js:684:47</tspan>
<tspan x="10" y="346">created apidoc file:///home/travis/build/npmdoc/node-npmdoc-express/tmp/build/apidoc.html</tspan>
<tspan x="10" y="362"></tspan>
<tspan x="10" y="378"></tspan>
<tspan x="10" y="394">browserTest - created electron entry-page /home/travis/build/npmdoc/node-npmdoc-express/tmp/elec\</tspan>
<tspan x="10" y="410">tron.15b055817ce0.619f29e93ae0e.html</tspan>
<tspan x="10" y="426"></tspan>
<tspan x="10" y="442">Xlib:  extension "RANDR" missing on display ":99.0".</tspan>
<tspan x="10" y="458">[node test-case 1 of 6 passed] - testCase_buildLib_default</tspan>
<tspan x="10" y="474">[node test-case 2 of 6 passed] - testCase_buildReadme_default</tspan>
<tspan x="10" y="490">[node test-case 3 of 6 passed] - testCase_buildTest_default</tspan>
<tspan x="10" y="506"></tspan>
<tspan x="10" y="522">browserTest - created electron entry-page /home/travis/build/npmdoc/node-npmdoc-express/tmp/elec\</tspan>
<tspan x="10" y="538">tron.15b055818c80.8eaf9cb1a5bc8.html</tspan>
<tspan x="10" y="554"></tspan>
<tspan x="10" y="570">(node:4913) DeprecationWarning: node --debug is deprecated. Please use node --inspect instead.</tspan>
<tspan x="10" y="586">Xlib:  extension "RANDR" missing on display ":99.0".</tspan>
<tspan x="10" y="602">&gt; server listening on http-port 43532</tspan>
<tspan x="10" y="618"></tspan>
<tspan x="10" y="634">/home/travis/build/npmdoc/node-npmdoc-express/node_modules/utility2/lib.utility2.sh.html.js</tspan>
<tspan x="10" y="650"> #1 Line too long.</tspan>
<tspan x="10" y="666">    process.stdout.write('export npm_package_' + key.replace((/\W/g), '_') + '=' + JSON.stringif\</tspan>
<tspan x="10" y="682">y(value) + ';'); // Line 1445, Pos 116</tspan>
<tspan x="10" y="698"></tspan>
<tspan x="10" y="714">merging file:///home/travis/build/npmdoc/node-npmdoc-express/tmp/build/test-report.json to test-\</tspan>
<tspan x="10" y="730">report</tspan>
<tspan x="10" y="746">Xlib:  extension "RANDR" missing on display ":99.0".</tspan>
<tspan x="10" y="762">[4927:0325/120152:WARNING:audio_manager.cc(314)] Multiple instances of AudioManager detected</tspan>
<tspan x="10" y="778">[4927:0325/120152:WARNING:audio_manager.cc(275)] Multiple instances of AudioManager detected</tspan>
<tspan x="10" y="794"></tspan>
<tspan x="10" y="810">/home/travis/build/npmdoc/node-npmdoc-express/node_modules/utility2/lib.utility2.sh.html.js</tspan>
<tspan x="10" y="826"> #1 Line too long.</tspan>
<tspan x="10" y="842">    process.stdout.write('export npm_package_' + key.replace((/\W/g), '_') + '=' + JSON.stringif\</tspan>
<tspan x="10" y="858">y(value) + ';'); // Line 1445, Pos 116</tspan>
<tspan x="10" y="874"></tspan>
<tspan x="10" y="890">[4971:0325/120152:ERROR:sandbox_linux.cc(343)] InitializeSandbox() called with multiple threads \</tspan>
<tspan x="10" y="906">in process gpu-process. </tspan>
<tspan x="10" y="922">merging file:///home/travis/build/npmdoc/node-npmdoc-express/tmp/build/test-report.json to test-\</tspan>
<tspan x="10" y="938">report</tspan>
<tspan x="10" y="954">[4927:0325/120152:ERROR:browser_gpu_channel_host_factory.cc(131)] Failed to create channel.</tspan>
<tspan x="10" y="970">Xlib:  extension "RANDR" missing on display ":99.0".</tspan>
<tspan x="10" y="986">[4949:0325/120152:WARNING:audio_manager.cc(314)] Multiple instances of AudioManager detected</tspan>
<tspan x="10" y="1002">[4949:0325/120152:WARNING:audio_manager.cc(275)] Multiple instances of AudioManager detected</tspan>
<tspan x="10" y="1018">[5001:0325/120152:ERROR:sandbox_linux.cc(343)] InitializeSandbox() called with multiple threads \</tspan>
<tspan x="10" y="1034">in process gpu-process. </tspan>
<tspan x="10" y="1050">[4949:0325/120152:ERROR:browser_gpu_channel_host_factory.cc(131)] Failed to create channel.</tspan>
<tspan x="10" y="1066"></tspan>
<tspan x="10" y="1082">browserTest - opened url file:///home/travis/build/npmdoc/node-npmdoc-express/tmp/build/apidoc.h\</tspan>
<tspan x="10" y="1098">tml</tspan>
<tspan x="10" y="1114"></tspan>
<tspan x="10" y="1130"></tspan>
<tspan x="10" y="1146">browserTest - opened url http://127.0.0.1:49402?modeTest=1</tspan>
<tspan x="10" y="1162"></tspan>
<tspan x="10" y="1178">[4949:0325/120154:INFO:CONSOLE(203)] "----------|-----------|-----------|-----------|-----------\</tspan>
<tspan x="10" y="1194">|</tspan>
<tspan x="10" y="1210">File      |   % Stmts |% Branches |   % Funcs |   % Lines |</tspan>
<tspan x="10" y="1226">----------|-----------|-----------|-----------|-----------|</tspan>
<tspan x="10" y="1242">----------|-----------|-----------|-----------|-----------|</tspan>
<tspan x="10" y="1258">All files |       100 |       100 |       100 |       100 |</tspan>
<tspan x="10" y="1274">----------|-----------|-----------|-----------|-----------|</tspan>
<tspan x="10" y="1290">", source: file:///home/travis/build/npmdoc/node-npmdoc-express/tmp/electron.15b055818c80.8eaf9c\</tspan>
<tspan x="10" y="1306">b1a5bc8.html (203)</tspan>
<tspan x="10" y="1322">[4949:0325/120154:INFO:CONSOLE(203)] "created coverage file:///tmp/build/coverage.html/index.htm\</tspan>
<tspan x="10" y="1338">l", source: file:///home/travis/build/npmdoc/node-npmdoc-express/tmp/electron.15b055818c80.8eaf9\</tspan>
<tspan x="10" y="1354">cb1a5bc8.html (203)</tspan>
<tspan x="10" y="1370">[node test-case 4 of 6 passed] - testCase_buildApp_default</tspan>
<tspan x="10" y="1386"></tspan>
<tspan x="10" y="1402">browserTest - created screen-capture file:///home/travis/build/npmdoc/node-npmdoc-express/tmp/bu\</tspan>
<tspan x="10" y="1418">ild/screen-capture.npmTest.browser._2Fhome_2Ftravis_2Fbuild_2Fnpmdoc_2Fnode-npmdoc-express_2Ftmp\</tspan>
<tspan x="10" y="1434">_2Fbuild_2Fapidoc.html.png</tspan>
<tspan x="10" y="1450"></tspan>
<tspan x="10" y="1466"></tspan>
<tspan x="10" y="1482">browserTest - exit-code 0 - file:///home/travis/build/npmdoc/node-npmdoc-express/tmp/build/apido\</tspan>
<tspan x="10" y="1498">c.html</tspan>
<tspan x="10" y="1514"></tspan>
<tspan x="10" y="1530">[node test-case 5 of 6 passed] - testCase_buildApidoc_default</tspan>
<tspan x="10" y="1546"></tspan>
<tspan x="10" y="1562">browserTest - created screen-capture file:///home/travis/build/npmdoc/node-npmdoc-express/tmp/bu\</tspan>
<tspan x="10" y="1578">ild/screen-capture.npmTest.browser..png</tspan>
<tspan x="10" y="1594"></tspan>
<tspan x="10" y="1610"></tspan>
<tspan x="10" y="1626">browserTest - exit-code 0 - http://127.0.0.1:49402?modeTest=1</tspan>
<tspan x="10" y="1642"></tspan>
<tspan x="10" y="1658"></tspan>
<tspan x="10" y="1674">browserTest - merged coverage from /home/travis/build/npmdoc/node-npmdoc-express/tmp/coverage.np\</tspan>
<tspan x="10" y="1690">mTest.browser.%2F.json</tspan>
<tspan x="10" y="1706"></tspan>
<tspan x="10" y="1722"></tspan>
<tspan x="10" y="1738">browserTest - merging test-report from /home/travis/build/npmdoc/node-npmdoc-express/tmp/test-re\</tspan>
<tspan x="10" y="1754">port.npmTest.browser.%2F.json</tspan>
<tspan x="10" y="1770"></tspan>
<tspan x="10" y="1786">[node test-case 6 of 6 passed] - testCase_webpage_default</tspan>
<tspan x="10" y="1802">----------------------------|-----------|-----------|-----------|-----------|</tspan>
<tspan x="10" y="1818">File                        |   % Stmts |% Branches |   % Funcs |   % Lines |</tspan>
<tspan x="10" y="1834">----------------------------|-----------|-----------|-----------|-----------|</tspan>
<tspan x="10" y="1850">   node-npmdoc-express/     |       100 |       100 |       100 |       100 |</tspan>
<tspan x="10" y="1866">      example.js            |       100 |       100 |       100 |       100 |</tspan>
<tspan x="10" y="1882">      lib.npmdoc_express.js |       100 |       100 |       100 |       100 |</tspan>
<tspan x="10" y="1898">      test.js               |       100 |       100 |       100 |       100 |</tspan>
<tspan x="10" y="1914">----------------------------|-----------|-----------|-----------|-----------|</tspan>
<tspan x="10" y="1930">All files                   |       100 |       100 |       100 |       100 |</tspan>
<tspan x="10" y="1946">----------------------------|-----------|-----------|-----------|-----------|</tspan>
<tspan x="10" y="1962"></tspan>
<tspan x="10" y="1978">created coverage file:///home/travis/build/npmdoc/node-npmdoc-express/tmp/build/coverage.html/in\</tspan>
<tspan x="10" y="1994">dex.html</tspan>
<tspan x="10" y="2010"></tspan>
<tspan x="10" y="2026">/home/travis/build/npmdoc/node-npmdoc-express/node_modules/utility2/lib.utility2.sh.html.js</tspan>
<tspan x="10" y="2042"> #1 Line too long.</tspan>
<tspan x="10" y="2058">    process.stdout.write('export npm_package_' + key.replace((/\W/g), '_') + '=' + JSON.stringif\</tspan>
<tspan x="10" y="2074">y(value) + ';'); // Line 1445, Pos 116</tspan>
<tspan x="10" y="2090"></tspan>
<tspan x="10" y="2106">merging file:///home/travis/build/npmdoc/node-npmdoc-express/tmp/build/test-report.json to test-\</tspan>
<tspan x="10" y="2122">report</tspan>
<tspan x="10" y="2138"></tspan>
<tspan x="10" y="2154">-------------------------------------------------------</tspan>
<tspan x="10" y="2170">| test-report - buildNpmdoc - node - linux v7.7.4 - 2017-03-25T12:01:40.478Z</tspan>
<tspan x="10" y="2186">|   16302 ms            0 failed        6 passed      |</tspan>
<tspan x="10" y="2202">-------------------------------------------------------</tspan>
<tspan x="10" y="2218"></tspan>
<tspan x="10" y="2234">created test-report file:///home/travis/build/npmdoc/node-npmdoc-express/tmp/build/test-report.h\</tspan>
<tspan x="10" y="2250">tml</tspan>
<tspan x="10" y="2266"></tspan>
<tspan x="10" y="2282"></tspan>
<tspan x="10" y="2298">npmTest - 0 failed tests</tspan>
<tspan x="10" y="2314"></tspan>
<tspan x="10" y="2330"></tspan>
<tspan x="10" y="2346">[MODE_BUILD=npmTest] - 2017-03-25T12:01:59Z - EXIT_CODE - 0</tspan>
</text>
</svg>
