<svg height="1614" width="720" xmlns="http://www.w3.org/2000/svg">
<rect height="1614" fill="#555" width="720"></rect>
<text fill="#7f7" font-family="Courier New" font-size="12" xml:space="preserve">
<tspan x="10" y="26"></tspan>
<tspan x="10" y="42">&gt; npmdoc-express@0.0.8 test /home/travis/build/npmdoc/node-npmdoc-express</tspan>
<tspan x="10" y="58">&gt; (set -e; export PORT=$(utility2 shServerPortRandom); utility2 test test.js)</tspan>
<tspan x="10" y="74"></tspan>
<tspan x="10" y="90"></tspan>
<tspan x="10" y="106">[MODE_BUILD=npmTest] - 2017-04-11T04:43:57Z - npm-testing /home/travis/build/npmdoc/node-npmdoc-\</tspan>
<tspan x="10" y="122">express</tspan>
<tspan x="10" y="138"></tspan>
<tspan x="10" y="154">merging file:///home/travis/build/npmdoc/node-npmdoc-express/tmp/build/test-report.json to test-\</tspan>
<tspan x="10" y="170">report</tspan>
<tspan x="10" y="186">&gt; server listening on http-port 60439</tspan>
<tspan x="10" y="202">Tue, 11 Apr 2017 04:43:59 GMT express deprecated req.host: Use req.hostname instead at node_modu\</tspan>
<tspan x="10" y="218">les/utility2/lib.apidoc.js:766:63</tspan>
<tspan x="10" y="234">Tue, 11 Apr 2017 04:43:59 GMT express deprecated req.host: Use req.hostname instead at node_modu\</tspan>
<tspan x="10" y="250">les/utility2/lib.apidoc.js:770:63</tspan>
<tspan x="10" y="266">Tue, 11 Apr 2017 04:43:59 GMT express deprecated req.host: Use req.hostname instead at node_modu\</tspan>
<tspan x="10" y="282">les/utility2/lib.apidoc.js:725:47</tspan>
<tspan x="10" y="298">created apidoc file:///home/travis/build/npmdoc/node-npmdoc-express/tmp/build/apidoc.html</tspan>
<tspan x="10" y="314"></tspan>
<tspan x="10" y="330"></tspan>
<tspan x="10" y="346">browserTest - created electron entry-page /home/travis/build/npmdoc/node-npmdoc-express/tmp/elec\</tspan>
<tspan x="10" y="362">tron.15b5b5354cb0.9afb0b1fd84a5.html</tspan>
<tspan x="10" y="378"></tspan>
<tspan x="10" y="394">[node test-case 1 of 6 passed] - testCase_buildLib_default</tspan>
<tspan x="10" y="410">[node test-case 2 of 6 passed] - testCase_buildReadme_default</tspan>
<tspan x="10" y="426">[node test-case 3 of 6 passed] - testCase_buildTest_default</tspan>
<tspan x="10" y="442">Xlib:  extension "RANDR" missing on display ":99.0".</tspan>
<tspan x="10" y="458"></tspan>
<tspan x="10" y="474">browserTest - created electron entry-page /home/travis/build/npmdoc/node-npmdoc-express/tmp/elec\</tspan>
<tspan x="10" y="490">tron.15b5b53556c0.cae472d993e55.html</tspan>
<tspan x="10" y="506"></tspan>
<tspan x="10" y="522">(node:5939) DeprecationWarning: node --debug is deprecated. Please use node --inspect instead.</tspan>
<tspan x="10" y="538">Xlib:  extension "RANDR" missing on display ":99.0".</tspan>
<tspan x="10" y="554">merging file:///home/travis/build/npmdoc/node-npmdoc-express/tmp/build/test-report.json to test-\</tspan>
<tspan x="10" y="570">report</tspan>
<tspan x="10" y="586">Xlib:  extension "RANDR" missing on display ":99.0".</tspan>
<tspan x="10" y="602">[5953:0411/044400:WARNING:audio_manager.cc(314)] Multiple instances of AudioManager detected</tspan>
<tspan x="10" y="618">[5953:0411/044400:WARNING:audio_manager.cc(275)] Multiple instances of AudioManager detected</tspan>
<tspan x="10" y="634">[5985:0411/044400:ERROR:sandbox_linux.cc(343)] InitializeSandbox() called with multiple threads \</tspan>
<tspan x="10" y="650">in process gpu-process. </tspan>
<tspan x="10" y="666">merging file:///home/travis/build/npmdoc/node-npmdoc-express/tmp/build/test-report.json to test-\</tspan>
<tspan x="10" y="682">report</tspan>
<tspan x="10" y="698">[5953:0411/044401:ERROR:browser_gpu_channel_host_factory.cc(131)] Failed to create channel.</tspan>
<tspan x="10" y="714">Xlib:  extension "RANDR" missing on display ":99.0".</tspan>
<tspan x="10" y="730">[5965:0411/044401:WARNING:audio_manager.cc(314)] Multiple instances of AudioManager detected</tspan>
<tspan x="10" y="746">[5965:0411/044401:WARNING:audio_manager.cc(275)] Multiple instances of AudioManager detected</tspan>
<tspan x="10" y="762">[6024:0411/044401:ERROR:sandbox_linux.cc(343)] InitializeSandbox() called with multiple threads \</tspan>
<tspan x="10" y="778">in process gpu-process. </tspan>
<tspan x="10" y="794">[5965:0411/044401:ERROR:browser_gpu_channel_host_factory.cc(131)] Failed to create channel.</tspan>
<tspan x="10" y="810"></tspan>
<tspan x="10" y="826">browserTest - opened url /home/travis/build/npmdoc/node-npmdoc-express/tmp/build/apidoc.html</tspan>
<tspan x="10" y="842"></tspan>
<tspan x="10" y="858">&gt; </tspan>
<tspan x="10" y="874">browserTest - opened url http://127.0.0.1:60439?modeTest=1</tspan>
<tspan x="10" y="890"></tspan>
<tspan x="10" y="906">server listening on http-port 40186</tspan>
<tspan x="10" y="922">[node test-case 4 of 6 passed] - testCase_buildApp_default</tspan>
<tspan x="10" y="938"></tspan>
<tspan x="10" y="954">browserTest - created screenCapture file:///home/travis/build/npmdoc/node-npmdoc-express/tmp/bui\</tspan>
<tspan x="10" y="970">ld/screenCapture.npmTest.browser.%2Fhome%2Ftravis%2Fbuild%2Fnpmdoc%2Fnode-npmdoc-express%2Ftmp%2\</tspan>
<tspan x="10" y="986">Fbuild%2Fapidoc.html.png</tspan>
<tspan x="10" y="1002"></tspan>
<tspan x="10" y="1018">browserTest - created screenCapture file:///home/travis/build/npmdoc/node-npmdoc-express/tmp/bui\</tspan>
<tspan x="10" y="1034">ld/screenCapture.npmTest.browser.%2Fhome%2Ftravis%2Fbuild%2Fnpmdoc%2Fnode-npmdoc-express%2Ftmp%2\</tspan>
<tspan x="10" y="1050">Fbuild%2Fapidoc.html.html</tspan>
<tspan x="10" y="1066"></tspan>
<tspan x="10" y="1082">browserTest - exit-code 0 - /home/travis/build/npmdoc/node-npmdoc-express/tmp/build/apidoc.html</tspan>
<tspan x="10" y="1098"></tspan>
<tspan x="10" y="1114">[node test-case 5 of 6 passed] - testCase_buildApidoc_default</tspan>
<tspan x="10" y="1130"></tspan>
<tspan x="10" y="1146">browserTest - created screenCapture file:///home/travis/build/npmdoc/node-npmdoc-express/tmp/bui\</tspan>
<tspan x="10" y="1162">ld/screenCapture.npmTest.browser.%2F.png</tspan>
<tspan x="10" y="1178"></tspan>
<tspan x="10" y="1194">browserTest - created screenCapture file:///home/travis/build/npmdoc/node-npmdoc-express/tmp/bui\</tspan>
<tspan x="10" y="1210">ld/screenCapture.npmTest.browser.%2F.html</tspan>
<tspan x="10" y="1226"></tspan>
<tspan x="10" y="1242">browserTest - exit-code 0 - http://127.0.0.1:60439?modeTest=1</tspan>
<tspan x="10" y="1258"></tspan>
<tspan x="10" y="1274"></tspan>
<tspan x="10" y="1290">browserTest - merging test-report from /home/travis/build/npmdoc/node-npmdoc-express/tmp/test-re\</tspan>
<tspan x="10" y="1306">port.npmTest.browser.%2F.json</tspan>
<tspan x="10" y="1322"></tspan>
<tspan x="10" y="1338">[node test-case 6 of 6 passed] - testCase_webpage_default</tspan>
<tspan x="10" y="1354">merging file:///home/travis/build/npmdoc/node-npmdoc-express/tmp/build/test-report.json to test-\</tspan>
<tspan x="10" y="1370">report</tspan>
<tspan x="10" y="1386"></tspan>
<tspan x="10" y="1402">-------------------------------------------------------</tspan>
<tspan x="10" y="1418">| test-report - buildCustomOrg - node - linux v7.8.0 - 2017-04-11T04:43:29.724Z</tspan>
<tspan x="10" y="1434">|   45979 ms            0 failed        6 passed      |</tspan>
<tspan x="10" y="1450">-------------------------------------------------------</tspan>
<tspan x="10" y="1466"></tspan>
<tspan x="10" y="1482">created test-report file:///home/travis/build/npmdoc/node-npmdoc-express/tmp/build/test-report.h\</tspan>
<tspan x="10" y="1498">tml</tspan>
<tspan x="10" y="1514"></tspan>
<tspan x="10" y="1530"></tspan>
<tspan x="10" y="1546">npmTest - 0 failed tests</tspan>
<tspan x="10" y="1562"></tspan>
<tspan x="10" y="1578"></tspan>
<tspan x="10" y="1594">[MODE_BUILD=npmTest] - 2017-04-11T04:44:18Z - EXIT_CODE - 0</tspan>
</text>
</svg>
