<svg height="2126" width="720" xmlns="http://www.w3.org/2000/svg">
<rect height="2126" fill="#555" width="720"></rect>
<text fill="#7f7" font-family="Courier New" font-size="12" xml:space="preserve">
<tspan x="10" y="26"></tspan>
<tspan x="10" y="42">&gt; npmdoc-express@0.0.4 test /home/travis/build/npmdoc/node-npmdoc-express</tspan>
<tspan x="10" y="58">&gt; (set -e; export PORT=$(utility2 shServerPortRandom); utility2 test test.js)</tspan>
<tspan x="10" y="74"></tspan>
<tspan x="10" y="90"></tspan>
<tspan x="10" y="106">[MODE_BUILD=npmTest] - 2017-03-18T08:27:57Z - npm-testing /home/travis/build/npmdoc/node-npmdoc-\</tspan>
<tspan x="10" y="122">express</tspan>
<tspan x="10" y="138"></tspan>
<tspan x="10" y="154"></tspan>
<tspan x="10" y="170">covering $ /home/travis/.nvm/versions/node/v7.7.3/bin/node /home/travis/build/npmdoc/node-npmdoc\</tspan>
<tspan x="10" y="186">-express/test.js</tspan>
<tspan x="10" y="202">merging file:///home/travis/build/npmdoc/node-npmdoc-express/tmp/build/test-report.json to test-\</tspan>
<tspan x="10" y="218">report</tspan>
<tspan x="10" y="234">&gt; server listening on http-port 47726</tspan>
<tspan x="10" y="250">apidocCreate - normalizing dir express</tspan>
<tspan x="10" y="266">apidocCreate - normalized dir /home/travis/build/npmdoc/node-npmdoc-express/node_modules/express</tspan>
<tspan x="10" y="282">Sat, 18 Mar 2017 08:27:58 GMT express deprecated req.host: Use req.hostname instead at node_modu\</tspan>
<tspan x="10" y="298">les/utility2/lib.apidoc.js:687:63</tspan>
<tspan x="10" y="314">Sat, 18 Mar 2017 08:27:58 GMT express deprecated req.host: Use req.hostname instead at node_modu\</tspan>
<tspan x="10" y="330">les/utility2/lib.apidoc.js:691:63</tspan>
<tspan x="10" y="346">Sat, 18 Mar 2017 08:27:58 GMT express deprecated req.host: Use req.hostname instead at node_modu\</tspan>
<tspan x="10" y="362">les/utility2/lib.apidoc.js:649:47</tspan>
<tspan x="10" y="378">created apidoc file:///home/travis/build/npmdoc/node-npmdoc-express/tmp/build/apidoc.html</tspan>
<tspan x="10" y="394"></tspan>
<tspan x="10" y="410"></tspan>
<tspan x="10" y="426">browserTest - created electron entry-page /home/travis/build/npmdoc/node-npmdoc-express/tmp/elec\</tspan>
<tspan x="10" y="442">tron.15ae087c31b0.199382d6d7336.html</tspan>
<tspan x="10" y="458"></tspan>
<tspan x="10" y="474">apidocCreate - normalizing dir express</tspan>
<tspan x="10" y="490">apidocCreate - normalized dir /home/travis/build/npmdoc/node-npmdoc-express/node_modules/express</tspan>
<tspan x="10" y="506">Xlib:  extension "RANDR" missing on display ":99.0".</tspan>
<tspan x="10" y="522">[node test-case 1 of 6 passed] - testCase_buildLib_default</tspan>
<tspan x="10" y="538">[node test-case 2 of 6 passed] - testCase_buildReadme_default</tspan>
<tspan x="10" y="554">[node test-case 3 of 6 passed] - testCase_buildTest_default</tspan>
<tspan x="10" y="570"></tspan>
<tspan x="10" y="586">browserTest - created electron entry-page /home/travis/build/npmdoc/node-npmdoc-express/tmp/elec\</tspan>
<tspan x="10" y="602">tron.15ae087c4120.1424d4f80aee7.html</tspan>
<tspan x="10" y="618"></tspan>
<tspan x="10" y="634">(node:4378) DeprecationWarning: node --debug is deprecated. Please use node --inspect instead.</tspan>
<tspan x="10" y="650">Xlib:  extension "RANDR" missing on display ":99.0".</tspan>
<tspan x="10" y="666">&gt; server listening on http-port 43700</tspan>
<tspan x="10" y="682">merging file:///home/travis/build/npmdoc/node-npmdoc-express/tmp/build/test-report.json to test-\</tspan>
<tspan x="10" y="698">report</tspan>
<tspan x="10" y="714">Xlib:  extension "RANDR" missing on display ":99.0".</tspan>
<tspan x="10" y="730">[4392:0318/082759:WARNING:audio_manager.cc(314)] Multiple instances of AudioManager detected</tspan>
<tspan x="10" y="746">[4392:0318/082759:WARNING:audio_manager.cc(275)] Multiple instances of AudioManager detected</tspan>
<tspan x="10" y="762">[4434:0318/082759:ERROR:sandbox_linux.cc(343)] InitializeSandbox() called with multiple threads \</tspan>
<tspan x="10" y="778">in process gpu-process. </tspan>
<tspan x="10" y="794">[4392:0318/082759:ERROR:browser_gpu_channel_host_factory.cc(131)] Failed to create channel.</tspan>
<tspan x="10" y="810">merging file:///home/travis/build/npmdoc/node-npmdoc-express/tmp/build/test-report.json to test-\</tspan>
<tspan x="10" y="826">report</tspan>
<tspan x="10" y="842">Xlib:  extension "RANDR" missing on display ":99.0".</tspan>
<tspan x="10" y="858">[4414:0318/082759:WARNING:audio_manager.cc(314)] Multiple instances of AudioManager detected</tspan>
<tspan x="10" y="874">[4414:0318/082759:WARNING:audio_manager.cc(275)] Multiple instances of AudioManager detected</tspan>
<tspan x="10" y="890"></tspan>
<tspan x="10" y="906">browserTest - opened url file:///home/travis/build/npmdoc/node-npmdoc-express/tmp/build/apidoc.h\</tspan>
<tspan x="10" y="922">tml</tspan>
<tspan x="10" y="938"></tspan>
<tspan x="10" y="954">[4470:0318/082759:ERROR:sandbox_linux.cc(343)] InitializeSandbox() called with multiple threads \</tspan>
<tspan x="10" y="970">in process gpu-process. </tspan>
<tspan x="10" y="986"></tspan>
<tspan x="10" y="1002">browserTest - opened url http://127.0.0.1:47726?modeTest=1</tspan>
<tspan x="10" y="1018"></tspan>
<tspan x="10" y="1034">[4414:0318/082801:INFO:CONSOLE(203)] "----------|-----------|-----------|-----------|-----------\</tspan>
<tspan x="10" y="1050">|</tspan>
<tspan x="10" y="1066">File      |   % Stmts |% Branches |   % Funcs |   % Lines |</tspan>
<tspan x="10" y="1082">----------|-----------|-----------|-----------|-----------|</tspan>
<tspan x="10" y="1098">----------|-----------|-----------|-----------|-----------|</tspan>
<tspan x="10" y="1114">All files |       100 |       100 |       100 |       100 |</tspan>
<tspan x="10" y="1130">----------|-----------|-----------|-----------|-----------|</tspan>
<tspan x="10" y="1146">", source: file:///home/travis/build/npmdoc/node-npmdoc-express/tmp/electron.15ae087c4120.1424d4\</tspan>
<tspan x="10" y="1162">f80aee7.html (203)</tspan>
<tspan x="10" y="1178">[4414:0318/082801:INFO:CONSOLE(203)] "created coverage file:///tmp/build/coverage.html/index.htm\</tspan>
<tspan x="10" y="1194">l", source: file:///home/travis/build/npmdoc/node-npmdoc-express/tmp/electron.15ae087c4120.1424d\</tspan>
<tspan x="10" y="1210">4f80aee7.html (203)</tspan>
<tspan x="10" y="1226">[node test-case 4 of 6 passed] - testCase_buildApp_default</tspan>
<tspan x="10" y="1242"></tspan>
<tspan x="10" y="1258">browserTest - created screen-capture file:///home/travis/build/npmdoc/node-npmdoc-express/tmp/bu\</tspan>
<tspan x="10" y="1274">ild/screen-capture.npmTest.browser._2Fhome_2Ftravis_2Fbuild_2Fnpmdoc_2Fnode-npmdoc-express_2Ftmp\</tspan>
<tspan x="10" y="1290">_2Fbuild_2Fapidoc.html.png</tspan>
<tspan x="10" y="1306"></tspan>
<tspan x="10" y="1322"></tspan>
<tspan x="10" y="1338">browserTest - exit-code 0 - file:///home/travis/build/npmdoc/node-npmdoc-express/tmp/build/apido\</tspan>
<tspan x="10" y="1354">c.html</tspan>
<tspan x="10" y="1370"></tspan>
<tspan x="10" y="1386">[node test-case 5 of 6 passed] - testCase_buildApidoc_default</tspan>
<tspan x="10" y="1402"></tspan>
<tspan x="10" y="1418">browserTest - created screen-capture file:///home/travis/build/npmdoc/node-npmdoc-express/tmp/bu\</tspan>
<tspan x="10" y="1434">ild/screen-capture.npmTest.browser..png</tspan>
<tspan x="10" y="1450"></tspan>
<tspan x="10" y="1466"></tspan>
<tspan x="10" y="1482">browserTest - exit-code 0 - http://127.0.0.1:47726?modeTest=1</tspan>
<tspan x="10" y="1498"></tspan>
<tspan x="10" y="1514"></tspan>
<tspan x="10" y="1530">browserTest - merged coverage from /home/travis/build/npmdoc/node-npmdoc-express/tmp/coverage.np\</tspan>
<tspan x="10" y="1546">mTest.browser.%2F.json</tspan>
<tspan x="10" y="1562"></tspan>
<tspan x="10" y="1578"></tspan>
<tspan x="10" y="1594">browserTest - merging test-report from /home/travis/build/npmdoc/node-npmdoc-express/tmp/test-re\</tspan>
<tspan x="10" y="1610">port.npmTest.browser.%2F.json</tspan>
<tspan x="10" y="1626"></tspan>
<tspan x="10" y="1642">[node test-case 6 of 6 passed] - testCase_webpage_default</tspan>
<tspan x="10" y="1658">----------------------------|-----------|-----------|-----------|-----------|</tspan>
<tspan x="10" y="1674">File                        |   % Stmts |% Branches |   % Funcs |   % Lines |</tspan>
<tspan x="10" y="1690">----------------------------|-----------|-----------|-----------|-----------|</tspan>
<tspan x="10" y="1706">   node-npmdoc-express/     |       100 |       100 |       100 |       100 |</tspan>
<tspan x="10" y="1722">      example.js            |       100 |       100 |       100 |       100 |</tspan>
<tspan x="10" y="1738">      lib.npmdoc_express.js |       100 |       100 |       100 |       100 |</tspan>
<tspan x="10" y="1754">      test.js               |       100 |       100 |       100 |       100 |</tspan>
<tspan x="10" y="1770">----------------------------|-----------|-----------|-----------|-----------|</tspan>
<tspan x="10" y="1786">All files                   |       100 |       100 |       100 |       100 |</tspan>
<tspan x="10" y="1802">----------------------------|-----------|-----------|-----------|-----------|</tspan>
<tspan x="10" y="1818"></tspan>
<tspan x="10" y="1834">created coverage file:///home/travis/build/npmdoc/node-npmdoc-express/tmp/build/coverage.html/in\</tspan>
<tspan x="10" y="1850">dex.html</tspan>
<tspan x="10" y="1866">merging file:///home/travis/build/npmdoc/node-npmdoc-express/tmp/build/test-report.json to test-\</tspan>
<tspan x="10" y="1882">report</tspan>
<tspan x="10" y="1898"></tspan>
<tspan x="10" y="1914">-------------------------------------------------------</tspan>
<tspan x="10" y="1930">| test-report - buildNpmdoc - node - linux v7.7.3 - 2017-03-18T08:27:47.559Z</tspan>
<tspan x="10" y="1946">|   16301 ms            0 failed        6 passed      |</tspan>
<tspan x="10" y="1962">-------------------------------------------------------</tspan>
<tspan x="10" y="1978"></tspan>
<tspan x="10" y="1994">created test-report file:///home/travis/build/npmdoc/node-npmdoc-express/tmp/build/test-report.h\</tspan>
<tspan x="10" y="2010">tml</tspan>
<tspan x="10" y="2026"></tspan>
<tspan x="10" y="2042"></tspan>
<tspan x="10" y="2058">npmTest - 0 failed tests</tspan>
<tspan x="10" y="2074"></tspan>
<tspan x="10" y="2090"></tspan>
<tspan x="10" y="2106">[MODE_BUILD=npmTest] - 2017-03-18T08:28:06Z - EXIT_CODE - 0</tspan>
</text>
</svg>
